<svg xmlns="http://www.w3.org/2000/svg" width="512" height="512" viewBox="0 0 512 512">
  <defs>
    <linearGradient id="bgm" x1="0" y1="0" x2="0" y2="1">
      <stop offset="0" stop-color="#1f5a82"/>
      <stop offset="1" stop-color="#0d2f4a"/>
    </linearGradient>
    <clipPath id="mbody"><circle cx="27" cy="33" r="20"/></clipPath>
  </defs>
  <rect width="512" height="512" fill="url(#bgm)"/>
  <!-- Fish kept within the ~80% maskable safe zone -->
  <g transform="translate(146,150) scale(3.4)">
    <path d="M45,33 L63,17 L56,28 L63,33 L56,38 L63,49 Z" fill="#5EC4BC" stroke="#1A1A1A" stroke-width="1.5" stroke-linejoin="round"/>
    <path d="M16,20 L25,2 L33,18 Z" fill="#5EC4BC" stroke="#1A1A1A" stroke-width="1.5" stroke-linejoin="round"/>
    <path d="M18,48 L26,62 L34,47 Z" fill="#5EC4BC" stroke="#1A1A1A" stroke-width="1.5" stroke-linejoin="round"/>
    <g transform="translate(0,28) rotate(90 6 5.5)">
      <path d="M6,11 C6,11 0,6.5 0,3 C0,1 1.5,0 3,0 C4.2,0 5.4,0.9 6,2 C6.6,0.9 7.8,0 9,0 C10.5,0 12,1 12,3 C12,6.5 6,11 6,11 Z"
            fill="#E8847C" stroke="#1A1A1A" stroke-width="1.3" stroke-linejoin="round"/>
    </g>
    <circle cx="27" cy="33" r="20" fill="#5EC4BC" stroke="#1A1A1A" stroke-width="1.8"/>
    <g clip-path="url(#mbody)">
      <rect x="36" y="12" width="5" height="42" fill="#D94F4F"/>
      <rect x="41" y="12" width="3.5" height="42" fill="#F5A623"/>
      <rect x="44.5" y="12" width="6" height="42" fill="#7B4397"/>
      <path d="M21,13 q-3,20 1,40" fill="none" stroke="#D94F4F" stroke-width="3.2"/>
    </g>
    <circle cx="18" cy="27" r="2.8" fill="#1A1A1A"/>
    <circle cx="17" cy="26" r="0.9" fill="#FFFFFF"/>
  </g>
</svg>
