<svg xmlns="http://www.w3.org/2000/svg" width="48" height="40" viewBox="0 0 48 40">
  <!-- Pink scallop shell (§7.2) -->
  <g stroke="#2D2D2D" stroke-width="1.6" stroke-linejoin="round">
    <!-- Lobes radiating from base -->
    <path d="M24,33 C14,33 8,24 11,15 C16,12 22,18 24,33 Z" fill="#FF6B9D"/>
    <path d="M24,33 C34,33 40,24 37,15 C32,12 26,18 24,33 Z" fill="#FF6B9D"/>
    <path d="M24,33 C17,33 13,22 16,11 C20,8 24,16 24,33 Z" fill="#FF7FA8"/>
    <path d="M24,33 C31,33 35,22 32,11 C28,8 24,16 24,33 Z" fill="#FF7FA8"/>
    <path d="M24,33 C24,33 20,18 24,7 C28,18 24,33 24,33 Z" fill="#FF8FB4"/>
    <!-- Base hinge -->
    <ellipse cx="24" cy="34" rx="14" ry="3.5" fill="#FF6B9D"/>
  </g>
</svg>
